<svg width="24" height="24" viewBox="0 0 24 24" fill="none" xmlns="http://www.w3.org/2000/svg">
<path d="M12 2.164C15.204 2.164 15.584 2.176 16.85 2.234C20.102 2.382 21.621 3.925 21.769 7.153C21.827 8.418 21.838 8.798 21.838 12.002C21.838 15.207 21.826 15.586 21.769 16.851C21.62 20.076 20.105 21.622 16.85 21.77C15.584 21.828 15.206 21.84 12 21.84C8.796 21.84 8.416 21.828 7.151 21.77C3.891 21.621 2.38 20.071 2.232 16.85C2.174 15.585 2.162 15.206 2.162 12.001C2.162 8.797 2.175 8.418 2.232 7.152C2.381 3.925 3.896 2.381 7.151 2.233C8.417 2.176 8.796 2.164 12 2.164ZM12 0.001C8.741 0.001 8.333 0.015 7.053 0.073C2.695 0.273 0.273 2.691 0.073 7.053C0.014 8.334 0 8.742 0 12.001C0 15.26 0.014 15.669 0.072 16.948C0.272 21.306 2.69 23.728 7.052 23.928C8.333 23.986 8.741 24 12 24C15.259 24 15.668 23.986 16.948 23.928C21.302 23.728 23.73 21.31 23.927 16.948C23.986 15.668 24 15.259 24 12C24 8.741 23.986 8.333 23.928 7.053C23.732 2.699 21.311 0.273 16.949 0.073C15.668 0.014 15.259 0 12 0V0.001ZM12 5.839C8.597 5.839 5.838 8.598 5.838 12.001Cnan nan 8.597 18.164 12 18.164Cnan nan 18.162 15.405 18.162 12.001C18.162 8.598 15.403 5.839 12 5.839ZM12 16.001C9.791 16.001 8 14.211 8 12.001C8 9.792 9.791 8.001 12 8.001Cnan nan 16 9.792 16 12.001C16 14.211 14.209 16.001 12 16.001ZM18.406 4.156C19.202 4.156 19.847 4.801 19.847 5.596Cnan nan 19.202 7.036 18.406 7.036C17.611 7.036 16.967 6.391 16.967 5.596Cnan nan 17.611 4.156 18.406 4.156Z" fill="#282828"/>
</svg>
