<svg width="24" height="17" viewBox="0 0 24 17" fill="none" xmlns="http://www.w3.org/2000/svg">
<path d="M23.498 2.641C23.2221 1.6016 22.4136 0.787765 21.376 0.505C19.505 0 12 0 12 0C12 0 4.495 0 2.623 0.505C1.58593 0.788257 0.777941 1.60196 0.502 2.641C0 4.525 0 8.455 0 8.455C0 8.455 0 12.385 0.502 14.269C0.777936 15.3084 1.58644 16.1222 2.624 16.405C4.495 16.91 12 16.91 12 16.91C12 16.91 19.505 16.91 21.377 16.405C22.4147 16.1224 23.2232 15.3085 23.499 14.269C24 12.385 24 8.455 24 8.455C24 8.455 24 4.525 23.498 2.641ZM9.545 12.023V4.887L15.818 8.455L9.545 12.023Z" fill="#282828"/>
</svg>