<svg width="25" height="25" viewBox="0 0 25 25" fill="none" xmlns="http://www.w3.org/2000/svg">
<path d="M7.5 15H15C15.3542 15 15.651 14.8802 15.8906 14.6406C16.1302 14.401 16.25 14.1042 16.25 13.75V11.25L18.75 13.75V6.25L16.25 8.75V6.25C16.25 5.89583 16.1302 5.59896 15.8906 5.35938C15.651 5.11979 15.3542 5 15 5H7.5C7.14583 5 6.84896 5.11979 6.60938 5.35938C6.36979 5.59896 6.25 5.89583 6.25 6.25V13.75C6.25 14.1042 6.36979 14.401 6.60938 14.6406C6.84896 14.8802 7.14583 15 7.5 15ZM0 25V2.5C0 1.8125 0.244792 1.22396 0.734375 0.734375C1.22396 0.244792 1.8125 0 2.5 0H22.5C23.1875 0 23.776 0.244792 24.2656 0.734375C24.7552 1.22396 25 1.8125 25 2.5V17.5C25 18.1875 24.7552 18.776 24.2656 19.2656C23.776 19.7552 23.1875 20 22.5 20H5L0 25ZM3.9375 17.5H22.5V2.5H2.5V18.9062L3.9375 17.5ZM2.5 17.5V2.5V17.5Z" fill="#F9F5ED"/>
</svg>