<svg width="26" height="26" viewBox="0 0 26 26" fill="none" xmlns="http://www.w3.org/2000/svg">
<path d="M12.3024 20.2927C10.2732 20.187 8.56098 19.4049 7.16585 17.9463C5.77073 16.4878 5.07317 14.7333 5.07317 12.6829C5.07317 10.5691 5.81301 8.77236 7.29268 7.29268C8.77236 5.81301 10.5691 5.07317 12.6829 5.07317C14.7333 5.07317 16.4878 5.77073 17.9463 7.16585C19.4049 8.56098 20.187 10.2732 20.2927 12.3024L17.6293 11.5098C17.3545 10.3683 16.7626 9.43293 15.8537 8.70366C14.9447 7.97439 13.8878 7.60976 12.6829 7.60976C11.2878 7.60976 10.0935 8.1065 9.1 9.1C8.1065 10.0935 7.60976 11.2878 7.60976 12.6829C7.60976 13.8878 7.97439 14.9447 8.70366 15.8537C9.43293 16.7626 10.3683 17.3545 11.5098 17.6293L12.3024 20.2927ZM13.8244 25.3024C13.6341 25.3447 13.4439 25.3659 13.2537 25.3659C13.0634 25.3659 12.8732 25.3659 12.6829 25.3659C10.9285 25.3659 9.27967 25.0329 7.73659 24.3671C6.1935 23.7012 4.85122 22.7976 3.70976 21.6561C2.56829 20.5146 1.66463 19.1724 0.99878 17.6293C0.332927 16.0862 0 14.4374 0 12.6829C0 10.9285 0.332927 9.27967 0.99878 7.73659C1.66463 6.1935 2.56829 4.85122 3.70976 3.70976C4.85122 2.56829 6.1935 1.66463 7.73659 0.99878C9.27967 0.332927 10.9285 0 12.6829 0C14.4374 0 16.0862 0.332927 17.6293 0.99878C19.1724 1.66463 20.5146 2.56829 21.6561 3.70976C22.7976 4.85122 23.7012 6.1935 24.3671 7.73659C25.0329 9.27967 25.3659 10.9285 25.3659 12.6829C25.3659 12.8732 25.3659 13.0634 25.3659 13.2537C25.3659 13.4439 25.3447 13.6341 25.3024 13.8244L22.8293 13.0634V12.6829C22.8293 9.85041 21.8463 7.45122 19.8805 5.48537C17.9146 3.51951 15.5154 2.53659 12.6829 2.53659C9.85041 2.53659 7.45122 3.51951 5.48537 5.48537C3.51951 7.45122 2.53659 9.85041 2.53659 12.6829C2.53659 15.5154 3.51951 17.9146 5.48537 19.8805C7.45122 21.8463 9.85041 22.8293 12.6829 22.8293C12.7463 22.8293 12.8098 22.8293 12.8732 22.8293C12.9366 22.8293 13 22.8293 13.0634 22.8293L13.8244 25.3024ZM23.4951 26L18.0732 20.578L16.4878 25.3659L12.6829 12.6829L25.3659 16.4878L20.578 18.0732L26 23.4951L23.4951 26Z" fill="#F9F5ED"/>
</svg>
