<svg width="21" height="24" viewBox="0 0 21 24" fill="none" xmlns="http://www.w3.org/2000/svg">
<path d="M10.9508 0.0199998C12.2608 0 13.5608 0.0099999 14.8608 0C14.9407 1.52998 15.4907 3.08997 16.6107 4.16996C17.7307 5.27995 19.3107 5.78994 20.8507 5.95994V9.9899C19.4107 9.9299 17.9607 9.6399 16.6507 9.01991C16.0807 8.75991 15.5507 8.42991 15.0307 8.08992C15.0207 11.0099 15.0407 13.9299 15.0107 16.8398C14.9307 18.2398 14.4708 19.6298 13.6608 20.7798C12.3508 22.6998 10.0808 23.9498 7.75082 23.9898C6.32084 24.0698 4.89085 23.6798 3.67086 22.9598C1.65089 21.7698 0.230899 19.5898 0.0209015 17.2498C0.00090169 16.7498 -0.00909821 16.2498 0.0109016 15.7598C0.1909 13.8599 1.13089 12.0399 2.59088 10.7999C4.25086 9.35991 6.57084 8.66991 8.74081 9.07991C8.76081 10.5599 8.70081 12.0399 8.70081 13.5199C7.80082 13.1999 6.72083 13.2899 5.89084 13.8799C5.35085 14.2599 5.00085 14.8598 4.87085 15.5198C4.57085 17.1598 5.77084 18.8698 7.43083 19.1098C7.89082 19.1898 8.37082 19.1798 8.83081 19.0898C9.33081 19.0098 9.8108 18.7798 10.1708 18.4098C10.6608 17.8998 10.9208 17.2098 10.9108 16.4998C10.9408 11.9299 10.9308 7.35993 10.9308 2.78997L10.9508 0.0199998Z" fill="#282828"/>
</svg>
